<?xml version="1.0" encoding="utf-8"?>
<!-- Generator: Adobe Illustrator 25.0.1, SVG Export Plug-In . SVG Version: 6.00 Build 0)  -->
<!DOCTYPE svg PUBLIC "-//W3C//DTD SVG 1.1//EN" "http://www.w3.org/Graphics/SVG/1.1/DTD/svg11.dtd" [
	<!ENTITY ns_extend "http://ns.adobe.com/Extensibility/1.0/">
	<!ENTITY ns_ai "http://ns.adobe.com/AdobeIllustrator/10.0/">
	<!ENTITY ns_graphs "http://ns.adobe.com/Graphs/1.0/">
	<!ENTITY ns_vars "http://ns.adobe.com/Variables/1.0/">
	<!ENTITY ns_imrep "http://ns.adobe.com/ImageReplacement/1.0/">
	<!ENTITY ns_sfw "http://ns.adobe.com/SaveForWeb/1.0/">
	<!ENTITY ns_custom "http://ns.adobe.com/GenericCustomNamespace/1.0/">
	<!ENTITY ns_adobe_xpath "http://ns.adobe.com/XPath/1.0/">
]>
<svg version="1.1" id="Layer_1" xmlns:x="&ns_extend;" xmlns:i="&ns_ai;" xmlns:graph="&ns_graphs;"
	 xmlns="http://www.w3.org/2000/svg" xmlns:xlink="http://www.w3.org/1999/xlink" x="0px" y="0px" width="512px" height="512px"
	 viewBox="0 0 512 512" style="enable-background:new 0 0 512 512;" xml:space="preserve">
<style type="text/css">
	.st0{fill:#FEFEFE;}
	.st1{fill:#1D1D1B;}
	.st2{fill:#252522;}
	.st3{fill:#E2052E;}
	.st4{fill:#269FDA;}
	.st5{fill:#E1062D;}
</style>
<metadata>
	<sfw  xmlns="&ns_sfw;">
		<slices></slices>
		<sliceSourceBounds  bottomLeftOrigin="true" height="512" width="512" x="0" y="0"></sliceSourceBounds>
	</sfw>
</metadata>
<g id="hE6tft_1_">
	<g>
		<path class="st0" d="M511.913,256.504c0,83.777-0.024,167.554,0.087,251.331c0.004,3.299-0.491,4.158-4.028,4.155
			c-167.903-0.116-335.805-0.119-503.708,0.01c-3.792,0.003-4.263-1.008-4.261-4.426C0.096,339.853,0.096,172.133,0,4.412
			C-0.002,0.962,0.515-0.003,4.275,0c167.736,0.125,335.472,0.125,503.208,0.004c3.904-0.003,4.521,1.048,4.516,4.67
			C511.887,88.617,511.913,172.561,511.913,256.504z"/>
		<path class="st1" d="M158.619,362.714c-9.146,4.083-16.196,3.094-21.028-2.836c-3.919-4.809-3.502-9.595,1.552-16.318
			c-2.802-1.268-5.798-2.222-7.253-5.321c-0.823-1.753-1.036-3.525-0.77-5.342c0.974-6.659,6.98-11.239,16.031-12.348
			c-0.488-2.891-1.144-5.766-1.429-8.678c-0.64-6.546,3.125-10.714,9.762-11.042c7.469-0.37,14.292,4.96,16.908,12.998
			c0.376,1.156-0.108,3.157,1.359,3.36c1.796,0.249,2.892-1.402,3.649-2.934c0.435-0.881,0.696-1.857,0.974-2.807
			c9.724-33.207,28.991-57.87,62.481-69.815c0.454-0.162,0.837-0.521,1.393-0.878c-2.901-2.489-5.79-4.854-8.532-7.378
			c-1.034-0.952-2.621-2.254-1.457-3.763c0.988-1.282,2.799-1.657,4.562-1.15c3.815,1.096,6.587,3.851,9.575,6.188
			c3.01,2.355,4.682,2.458,6.343-1.57c3.826-9.278,8.873-17.904,16.194-24.927c12.095-11.602,26.604-15.391,42.809-12.031
			c16.687,3.46,26.884,20.177,23.825,38.31c-0.601,3.563-1.489,7.077-2.302,10.879c4.391,0.337,8.26-1.308,12.262-2.143
			c5.944-1.24,10.78,0.091,10.269,2.929c-0.882,4.901-5.443,4.445-9.134,4.939c-2.95,0.395-5.907,0.732-8.948,1.106
			c0.356,2.344,2.352,2.905,3.682,3.984c12.337,10.007,23.793,20.843,32.559,34.234c12.75,19.479,16.681,41.007,14.766,63.88
			c-0.141,1.681-1.333,3.65,1.603,4.288c8.977,1.951,12.567,8.645,14.177,16.757c1.298,6.544,0.422,12.95-2.755,18.876
			c-2.884,5.381-7.398,8.59-13.614,8.578c-2.345-0.004-3.436,0.933-4.802,2.6c-4.478,5.464-9.725,9.199-17.261,5.765
			c-2.156-0.982-3.401,0.721-4.849,1.7c-11.859,8.022-23.885,15.694-37.895,19.575c-6.544,1.813-13.21,2.723-20.538,2.788
			c2.78,5.463,6.667,9.305,10.243,13.358c8.935,10.124,8.983,10.12-0.221,19.689c-10.492,10.909-21.844,20.497-37.126,24.043
			c-4.226,0.98-8.447,1.731-12.815,1.662c-14.002-0.224-20.749-10.496-15.368-23.511c2.047-4.951,5.688-8.57,10.036-11.481
			c2.754-1.844,5.635-3.528,8.581-5.049c7.214-3.726,7.24-3.669,0.982-9.392c-1.106-1.011-2.218-2.019-3.264-3.09
			c-4.248-4.351-4.267-4.378-7.753,1.06c-7.929,12.368-13.314,25.979-18.963,39.438c-1.346,3.207-3.02,4.187-6.307,3.92
			c-12.893-1.049-24.884-4.479-34.854-13.108c-6.985-6.046-11.011-13.643-10.976-23.111c0.036-9.714,5.295-14.86,15.055-14.644
			c7.881,0.174,14.936,3.054,21.595,6.94c2.93,1.71,4.363,1.176,5.399-1.989c0.977-2.986,2.083-5.992,3.609-8.722
			c1.895-3.391,1.82-4.902-2.345-6.707c-15.878-6.881-29.217-17.102-38.657-31.911c-3.135-4.918-5.696-10.112-7.764-15.569
			c-0.503-1.328-0.472-3.039-3.189-2.677C167.666,375.779,163.308,373.162,158.619,362.714z"/>
		<path class="st2" d="M338.601,469.742c1.835-8.255,3.263-16.377-2.906-23.62c5.378-0.087,7.84,2.685,9.043,9.705
			C345.926,462.768,343.766,467.929,338.601,469.742z"/>
		<path class="st3" d="M380.872,346.164c-0.225,2.494,0.469,7.321-0.704,12.115c-1.277,5.218,2.555,6.656,6.476,7.54
			c3.277,0.738,6.56,1.316,8.735,4.201c5.882,7.8,1.15,20.18-5.114,25.007c-1.712,1.319-2.423,0.352-2.432-1.372
			c-0.016-2.997-0.08-6.008,0.174-8.987c0.296-3.466-1.905-4.357-4.531-4.629c-3.39-0.351-2.303,2.419-2.589,4.161
			c-0.857,5.224-0.91,10.58-2.829,15.629c-0.862,2.27-1.985,4.174-4.238,5.275c-3.964,1.938-7.108,0.092-6.943-4.311
			c0.105-2.799,0.734-5.575,1.075-8.368c0.321-2.63-0.535-4.883-3.296-5.273c-2.66-0.376-3.595,1.622-3.982,4.055
			c-0.414,2.603-1.094,5.175-1.824,7.712c-0.408,1.417-0.976,2.854-1.783,4.078c-2.06,3.125-8.372,5.782-9.858,3.951
			c-2.463-3.035-1.654-6.67,0.31-9.708c1.974-3.055,4.496-5.753,6.693-8.671c0.963-1.278,2.399-2.597,1.124-4.425
			c-1.14-1.635-2.963-1.466-4.57-1.178c-2.278,0.407-4.487,1.186-6.746,1.717c-2.042,0.48-4.196,0.426-5.468-1.389
			c-1.288-1.838-0.528-3.908,0.662-5.593c3.383-4.793,8.394-5.639,13.694-5.011c8.256,0.978,8.722,0.391,7.521-8.447
			c-0.782-5.753-1.142-11.564,0.961-17.259c0.736-1.993,2.103-4.893-0.959-5.971c-2.965-1.044-5.106,1.139-6.224,3.724
			c-0.839,1.941-1.449,4.046-1.326,6.291c0.136,2.491-0.245,5.036,0.105,7.484c0.713,4.994-0.386,7.937-6.24,8.127
			c-5.192,0.168-9.326,3.062-12.924,6.785c-5.247,5.429-3.534,14.8,3.698,17.046c3.602,1.119,3.232,2.273,2.44,5.151
			c-1.637,5.953-3.02,12.139,2.996,16.836c1.695,1.323,0.814,2.291-0.45,3.046c-11.801,7.053-23.944,13.028-38.242,12.607
			c-4.035-0.119-9.514-2.027-11.525,2.134c-1.912,3.958,2.085,8.021,4.588,11.37c3.575,4.782,7.703,9.152,11.635,13.663
			c1.082,1.242,2.631,2.201,0.861,4.099c-10.607,11.377-21.526,22.284-37.226,26.534c-2.439,0.66-4.873,0.891-7.38,1.017
			c-11.104,0.562-12.705-8.737-8.868-14.643c5.761-8.87,14.175-14.842,25.044-16.26c4.49-0.586,5.156-1.549,2.967-5.582
			c-1.347-2.481-3.575-4.005-5.773-5.392c-5.339-3.369-9.263-7.877-12.635-13.171c-4.977-7.814-8.857-7.736-13.948,0.138
			c-7.065,10.926-12.375,22.733-17.042,34.859c-4.988,12.96-5.093,12.971-18.328,8.336c-7.118-2.493-13.815-5.829-19.158-11.302
			c-3.444-3.528-5.766-7.558-5.509-12.865c0.345-7.101,4.939-11.046,11.881-9.76c5.526,1.024,10.182,3.905,14.843,6.824
			c11.91,7.459,9.639,6.094,14.666-4.423c2.787-5.83,4.84-12.007,7.415-17.945c1.458-3.362,0.643-4.7-2.934-5.918
			c-22.885-7.791-40.374-21.936-48.918-45.041c-13.388-36.203-7.4-69.57,16.595-99.66c10.947-13.728,24.663-23.597,41.779-28.421
			c3.652-1.029,7.13-1.038,10.779-0.125c17.262,4.323,34.673,7.663,52.584,7.428c0.5-0.007,1.036,0.122,1.494-0.016
			c11.898-3.593,20.455,2.458,28.546,9.858c16.91,15.467,31.361,32.573,37.441,55.389
			C380.295,327.329,381.346,335.503,380.872,346.164z"/>
		<path class="st4" d="M308.891,247.002c-15.816,0.03-31.353-2.112-46.718-5.791c-2.359-0.565-3.853-1.177-2.891-3.843
			c6.233-17.276,16.131-31.428,35.396-34.865c24.996-4.46,35.892,12.494,32.562,31.801c-2.733,15.847-0.833,12.221-15.356,12.694
			C310.888,247.03,309.889,247.002,308.891,247.002z"/>
		<path class="st5" d="M175.994,334.357c-0.095,5.344,0.568,9.399-1.575,13.09c-0.701,1.209-0.113,2.194,0.54,3.216
			c2.23,3.488,2.552,7.517,2.949,11.461c0.229,2.273,1.282,5.26-2.697,5.731c-3.441,0.408-6.032-0.87-6.967-4.201
			c-0.845-3.009-1.385-6.132-1.244-9.341c0.085-1.926,0.393-4.33-1.808-5.265c-1.887-0.801-3.434,0.75-4.865,1.893
			c-2.463,1.967-4.726,4.264-7.409,5.854c-2.866,1.698-6.696,2.766-8.898-0.343c-2.21-3.119-0.952-6.781,1.973-9.36
			c2.908-2.563,6.57-3.814,10.064-5.366c1.792-0.796,4.895-1.229,3.638-4.23c-0.979-2.339-3.465-2.796-6.007-2.29
			c-3.241,0.645-6.49,1.331-9.77,1.671c-1.867,0.194-4.574,0.625-5.123-1.764c-0.58-2.526,0.74-4.802,3.303-6.116
			c1.37-0.702,2.734-1.06,4.266-1.125c3.652-0.155,7.31-0.331,10.944-0.707c1.53-0.158,3.829,0.643,4.373-1.405
			c0.59-2.224-1.135-3.793-3.051-4.573c-4.212-1.714-5.509-5.077-5.404-9.17c0.051-1.978,0.539-4.148,2.777-4.843
			c2.051-0.638,3.861,0.162,5.417,1.704c3.033,3.006,3.332,7.109,4.616,10.837c1.188,3.447,1.601,8.199,7.474,5.164
			c1.771-0.915,1.797,0.848,1.9,1.91C175.699,329.763,175.875,332.749,175.994,334.357z"/>
		<path class="st1" d="M270.6,364.812c22.655,0.135,45.662-16.609,52.598-38.023c1.113-3.435,2.977-7.632,6.946-6.169
			c3.788,1.397,2.275,6.006,0.818,8.75c-12.209,22.991-31.956,43.791-61.9,42.696c-32.497-1.189-60.555-29.358-60.057-61.318
			c0.058-3.695,0.801-7.235,2.128-10.689c0.876-2.281,2.644-2.396,4.486-1.942c2.179,0.537,1.325,2.288,1.101,3.687
			c-4.653,29.083,16.761,58.521,45.907,62.956C265.226,365.155,267.939,364.812,270.6,364.812z"/>
		<path class="st1" d="M291.751,282.732c0.36-5.932,2.367-11.292,8.609-14.036c5.983-2.63,9.241-0.761,10.815,5.589
			c1.456,5.873-0.14,10.849-4.15,14.996c-3.006,3.109-6.818,4.785-11.24,3.085C291.409,290.685,292.038,286.692,291.751,282.732z"/>
		<path class="st1" d="M275.123,271.14c-0.829,5.585-2.236,10.948-7.848,13.951c-5.043,2.699-10.136-0.203-10.417-5.792
			c-0.257-5.113,0.364-9.908,4.176-13.772c2.852-2.891,6.447-3.617,10.034-2.415C274.584,264.29,274.576,267.909,275.123,271.14z"/>
	</g>
</g>
</svg>
